PathFileType	4	(X/Y/Z)	 s11c0402.trc
DataRate	CameraRate	NumFrames	NumMarkers	Units	OrigDataRate	OrigDataStartFrame	OrigNumFrames
200	200	4	48	mm	200	1	2000
Frame#	Time	racr			lacr			c7			jug			rlel			rdr			llel			ldr			s2			lic			ric			lasi			rasi			rpsi			lpsi			rgt			lgt			rth1			rth2			rth3			rth4			rlfc			rmfc			rsh1			rsh2			rsh3			rsh4			rlmal			rcal			rtoe			rmt5			lth1			lth2			lth4			lth3			llfc			lmfc			llmal			lcal			lmt5			lsh1			lsh2			lsh3			lsh4			ltoe			SBIKE			LBIKE			RBIKE			
		X1	Y1	Z1	X2	Y2	Z2	X3	Y3	Z3	X4	Y4	Z4	X5	Y5	Z5	X6	Y6	Z6	X7	Y7	Z7	X8	Y8	Z8	X9	Y9	Z9	X10	Y10	Z10	X11	Y11	Z11	X12	Y12	Z12	X13	Y13	Z13	X14	Y14	Z14	X15	Y15	Z15	X16	Y16	Z16	X17	Y17	Z17	X18	Y18	Z18	X19	Y19	Z19	X20	Y20	Z20	X21	Y21	Z21	X22	Y22	Z22	X23	Y23	Z23	X24	Y24	Z24	X25	Y25	Z25	X26	Y26	Z26	X27	Y27	Z27	X28	Y28	Z28	X29	Y29	Z29	X30	Y30	Z30	X31	Y31	Z31	X32	Y32	Z32	X33	Y33	Z33	X34	Y34	Z34	X35	Y35	Z35	X36	Y36	Z36	X37	Y37	Z37	X38	Y38	Z38	X39	Y39	Z39	X40	Y40	Z40	X41	Y41	Z41	X42	Y42	Z42	X43	Y43	Z43	X44	Y44	Z44	X45	Y45	Z45	X46	Y46	Z46	X47	Y47	Z47	X48	Y48	Z48	
1	0.0050	430.725063	1429.058775	-69.763129	432.357082	1453.639179	-394.439262	333.326539	1555.439072	-234.543350	388.388371	1387.337913	-242.166863	552.669817	1177.190673	-2.906913	764.936307	957.895131	-31.456636	543.125501	1171.794446	-469.452498	780.010211	950.527890	-437.642097	-146.054526	1190.090472	-244.500320	73.437144	1233.014275	-441.880119	75.253406	1207.301436	-47.427613	109.075447	1156.585663	-409.369428	114.378563	1144.851712	-80.445586	-110.659179	1263.551098	-186.933732	-114.956747	1260.562249	-283.726420	25.100115	1047.424266	-35.036157	4.545985	1104.275660	-464.073300	124.414072	941.540377	-34.292536	197.974345	890.319963	-41.654337	237.443274	813.554350	-58.092234	226.481355	916.040782	-49.999947	302.703563	728.269413	-75.100116	302.945924	711.946105	-200.798214	208.609109	598.171784	-64.924086	176.069524	518.152401	-84.896074	108.913902	462.857869	-88.060491	197.480010	507.914005	-116.987460	17.763514	365.769552	-103.472869	-48.040672	366.660307	-152.545658	210.818512	245.592876	-137.413555	133.989501	242.484692	-70.895299	139.002900	1036.114938	-480.960183	223.322917	1020.776547	-479.832428	240.269434	1052.108035	-468.479662	291.011775	961.367303	-480.942189	412.821559	883.334106	-456.809466	NaN	NaN	NaN	266.206802	479.089791	-410.436983	213.044986	428.049078	-372.060862	419.933680	406.055504	-438.609614	371.295599	762.400741	-468.673414	368.555199	679.129032	-448.938950	322.842483	603.357191	-439.345981	398.343295	674.101005	-424.981683	510.581907	442.714453	-369.730967	-205.272252	953.633470	-261.971479	1.176876	82.567211	-460.739999	-15.290424	81.078072	-62.430239	
2	0.0100	430.578828	1429.074983	-69.932831	432.010779	1453.625435	-394.356344	332.968144	1555.581184	-234.580563	387.970269	1387.499277	-242.265136	552.654384	1177.222030	-3.085966	764.922770	957.881207	-31.593136	543.096926	1171.788543	-469.163639	780.075818	950.520678	-437.714509	-146.277119	1190.019601	-244.403573	73.178087	1233.036873	-441.787088	75.118305	1207.328663	-47.404283	108.921279	1156.682471	-409.335948	114.301237	1144.937708	-80.446251	-110.819908	1263.434184	-186.846787	-115.163943	1260.518105	-283.655937	25.080020	1047.350529	-35.024937	4.474195	1104.326674	-464.054986	121.470856	939.774382	-34.130542	197.952966	890.261882	-41.654721	237.392957	813.475495	-58.089226	226.444052	916.046090	-49.972453	302.674168	728.185318	-75.099768	302.916579	711.831478	-200.832439	208.627532	598.046574	-64.921483	176.085065	518.085386	-84.898083	108.949600	462.760778	-88.035754	197.495238	507.797275	-116.981856	17.810211	365.632847	-103.467756	-47.953763	366.525786	-152.555495	210.906279	245.446008	-137.386684	134.130947	242.281292	-70.938984	138.979966	1036.210849	-480.936246	223.302012	1020.910632	-479.817584	240.228968	1052.241032	-468.439893	290.998663	961.567036	-480.983684	412.813728	883.503838	-456.787212	NaN	NaN	NaN	266.160124	479.324067	-410.443744	212.976725	428.290173	-372.039176	419.881913	406.176606	-438.609468	371.286530	762.580560	-468.663631	368.529592	679.324164	-448.972694	322.810507	603.569252	-439.311057	398.318393	674.295261	-424.966918	510.531043	442.862731	-369.745317	-205.287467	953.624074	-261.976631	1.166006	82.612977	-460.736490	-15.281592	81.080998	-62.427046	
3	0.0150	430.396867	1429.069575	-70.110649	431.746609	1453.659852	-394.421948	332.643717	1555.789413	-234.643254	387.576453	1387.713584	-242.347544	552.655753	1177.288145	-3.317362	764.899388	957.855167	-31.765804	543.039955	1171.768448	-468.924127	780.124286	950.518844	-437.737985	-146.462533	1189.899381	-244.282634	72.900796	1233.077698	-441.712124	74.973372	1207.344181	-47.366722	108.834698	1156.937459	-409.469530	114.226719	1145.017485	-80.453303	-111.019190	1263.269267	-186.745862	-115.349796	1260.466547	-283.575124	25.037103	1047.261459	-34.996533	4.383028	1104.346885	-464.033164	121.458010	939.715076	-34.093234	197.937089	890.226013	-41.628868	237.350838	813.418815	-58.054679	226.386922	916.038589	-49.928584	302.603988	728.112623	-75.070265	302.886878	711.784625	-200.856016	208.611080	597.966289	-64.909610	176.127995	517.975700	-84.888372	109.026719	462.571138	-88.051347	197.498722	507.699808	-116.955189	17.904909	365.479997	-103.442151	-47.853364	366.333517	-152.540460	210.998326	245.248975	-137.415485	134.231871	242.116969	-70.935521	138.924521	1036.325699	-480.913140	223.254961	1021.121503	-479.785242	240.171919	1052.414237	-468.395760	290.981484	961.754977	-480.959404	412.795124	883.691745	-456.790525	427.708984	883.882938	-330.194217	266.119791	479.551581	-410.427654	212.909002	428.487909	-372.049416	419.813846	406.361426	-438.607728	371.274072	762.754333	-468.651315	368.512639	679.553333	-448.961853	322.787357	603.837395	-439.294665	398.278960	674.550445	-424.963964	510.488446	442.997365	-369.745880	-205.294260	953.627564	-261.963003	1.161328	82.604074	-460.729682	-15.289844	81.081849	-62.437572	
4	0.0200	430.193978	1429.115347	-70.321175	431.969259	1454.342261	-395.391970	332.274746	1555.967996	-234.738580	387.194987	1387.934463	-242.376396	552.648008	1177.336776	-3.570527	764.874746	957.844116	-31.949880	542.950751	1171.743842	-468.699444	780.241139	950.431616	-437.643775	-146.638312	1189.636477	-244.165484	72.649456	1233.166089	-441.702515	74.807042	1207.370944	-47.332720	108.629923	1157.043341	-409.380006	113.945544	1145.213354	-80.516020	-111.252882	1263.112575	-186.635468	-115.599647	1260.333587	-283.393293	25.018649	1047.161614	-34.971822	4.334572	1104.499237	-464.034775	124.183585	941.393994	-34.280878	197.882927	890.151878	-41.609381	237.308903	813.372046	-58.051027	224.504815	915.238975	-50.209835	302.540673	728.051731	-75.062648	302.877820	711.710476	-200.879435	208.601288	597.867152	-64.895524	176.340402	517.852742	-84.704934	109.053777	462.419681	-88.059609	197.251119	507.737232	-117.040678	18.018099	365.417343	-103.595831	-47.771787	366.125498	-152.538311	211.076961	245.068347	-137.419600	134.298992	241.937116	-70.943200	138.848649	1036.468731	-480.898347	223.191743	1021.289695	-479.768814	240.146055	1052.343905	-468.042172	290.941776	961.922344	-480.905446	412.775815	883.897635	-456.774222	427.676988	884.024698	-330.185330	266.074863	479.761310	-410.396561	212.465798	428.818887	-372.441652	419.739949	406.558252	-438.624620	371.251139	762.972520	-468.642107	368.401823	679.261262	-449.289922	322.665679	604.066281	-439.439664	397.804798	675.189254	-427.696842	510.424286	443.123699	-369.735687	-256.126509	932.687998	-280.253638	1.158352	82.607980	-460.756424	-15.276883	81.090809	-62.437964	
